<svg version="1.1" xmlns="http://www.w3.org/2000/svg" xmlns:xlink="http://www.w3.org/1999/xlink" width="500" height="582"><defs/><g><g transform="translate(10,-46) scale(1,1)"><path fill="#ffffff" stroke="none" d="M 42.52751438210227 313.68 C 42.52751438210227 308.886167936 46.413356707047726 305 51.206787109375 305 C 56.000217511702274 305 59.88605983664773 308.886167936 59.88605983664773 313.68 C 59.88605983664773 318.473832064 56.000217511702274 322.36 51.206787109375 322.36 C 46.413356707047726 322.36 42.52751438210227 318.473832064 42.52751438210227 313.68 Z"/></g><g transform="translate(10,-46) scale(1,1)"><path fill="none" stroke="#000000" d="M 42.52751438210227 313.68 C 42.52751438210227 308.886167936 46.413356707047726 305 51.206787109375 305 C 56.000217511702274 305 59.88605983664773 308.886167936 59.88605983664773 313.68 C 59.88605983664773 318.473832064 56.000217511702274 322.36 51.206787109375 322.36 C 46.413356707047726 322.36 42.52751438210227 318.473832064 42.52751438210227 313.68 Z" stroke-miterlimit="10"/></g><g transform="translate(10,-46) scale(1,1)"><path fill="none" stroke="#000000" d="M 51.206787109375 322.36 L 51.206787109375 339.64" stroke-miterlimit="10"/></g><g transform="translate(10,-46) scale(1,1)"><path fill="none" stroke="#000000" d="M 42.01696892755682 328.84 L 60.39660529119318 328.84" stroke-miterlimit="10"/></g><g transform="translate(10,-46) scale(1,1)"><path fill="none" stroke="#000000" d="M 51.206787109375 339.64 L 38.443150745738635 357" stroke-miterlimit="10"/></g><g transform="translate(10,-46) scale(1,1)"><path fill="none" stroke="#000000" d="M 51.206787109375 339.64 L 63.970423473011365 357" stroke-miterlimit="10"/></g><g transform="translate(10,-46) scale(1,1)"><g><path fill="none" stroke="none"/><text fill="#000000" stroke="none" font-family="Arial" font-size="13px" font-style="normal" font-weight="bold" text-decoration="none" x="22.667724609375" y="377.5">Gebruiker</text></g></g><g transform="translate(10,-46) scale(1,1)"><path fill="#C0C0C0" stroke="none" d="M 15 80 C 15 70.6111584 53.5035072 63 101 63 C 148.4964928 63 187 70.6111584 187 80 C 187 89.3888416 148.4964928 97 101 97 C 53.5035072 97 15 89.3888416 15 80 Z" opacity="0.2"/></g><g transform="translate(10,-46) scale(1,1)"><path fill="#ffffff" stroke="none" d="M 8 73 C 8 63.6111584 46.5035072 56 94 56 C 141.4964928 56 180 63.6111584 180 73 C 180 82.3888416 141.4964928 90 94 90 C 46.5035072 90 8 82.3888416 8 73 Z"/></g><g transform="translate(10,-46) scale(1,1)"><path fill="none" stroke="#000000" d="M 8 73 C 8 63.6111584 46.5035072 56 94 56 C 141.4964928 56 180 63.6111584 180 73 C 180 82.3888416 141.4964928 90 94 90 C 46.5035072 90 8 82.3888416 8 73 Z" stroke-miterlimit="10"/></g><g transform="translate(10,-46) scale(1,1)"><g><path fill="none" stroke="none"/><text fill="#000000" stroke="none" font-family="Arial" font-size="13px" font-style="normal" font-weight="bold" text-decoration="none" x="40.16552734375" y="80">Teams aanmelden</text></g></g><g transform="translate(10,-46) scale(1,1)"><path fill="#C0C0C0" stroke="none" d="M 311 280 C 311 270.6111584 337.4151968 263 370 263 C 402.5848032 263 429 270.6111584 429 280 C 429 289.3888416 402.5848032 297 370 297 C 337.4151968 297 311 289.3888416 311 280 Z" opacity="0.2"/></g><g transform="translate(10,-46) scale(1,1)"><path fill="#ffffff" stroke="none" d="M 304 273 C 304 263.6111584 330.4151968 256 363 256 C 395.5848032 256 422 263.6111584 422 273 C 422 282.3888416 395.5848032 290 363 290 C 330.4151968 290 304 282.3888416 304 273 Z"/></g><g transform="translate(10,-46) scale(1,1)"><path fill="none" stroke="#000000" d="M 304 273 C 304 263.6111584 330.4151968 256 363 256 C 395.5848032 256 422 263.6111584 422 273 C 422 282.3888416 395.5848032 290 363 290 C 330.4151968 290 304 282.3888416 304 273 Z" stroke-miterlimit="10"/></g><g transform="translate(10,-46) scale(1,1)"><g><path fill="none" stroke="none"/><text fill="#000000" stroke="none" font-family="Arial" font-size="13px" font-style="normal" font-weight="bold" text-decoration="none" x="328.313232421875" y="280">Spel starten</text></g></g><g transform="translate(10,-46) scale(1,1)"><path fill="#C0C0C0" stroke="none" d="M 279 384 C 279 374.6111584 325.5623808 367 383 367 C 440.4376192 367 487 374.6111584 487 384 C 487 393.3888416 440.4376192 401 383 401 C 325.5623808 401 279 393.3888416 279 384 Z" opacity="0.2"/></g><g transform="translate(10,-46) scale(1,1)"><path fill="#ffffff" stroke="none" d="M 272 377 C 272 367.6111584 318.5623808 360 376 360 C 433.4376192 360 480 367.6111584 480 377 C 480 386.3888416 433.4376192 394 376 394 C 318.5623808 394 272 386.3888416 272 377 Z"/></g><g transform="translate(10,-46) scale(1,1)"><path fill="none" stroke="#000000" d="M 272 377 C 272 367.6111584 318.5623808 360 376 360 C 433.4376192 360 480 367.6111584 480 377 C 480 386.3888416 433.4376192 394 376 394 C 318.5623808 394 272 386.3888416 272 377 Z" stroke-miterlimit="10"/></g><g transform="translate(10,-46) scale(1,1)"><g><path fill="none" stroke="none"/><text fill="#000000" stroke="none" font-family="Arial" font-size="13px" font-style="normal" font-weight="bold" text-decoration="none" x="312.399658203125" y="384">Antwoord goedkeuren</text></g></g><g transform="translate(10,-46) scale(1,1)"><path fill="#C0C0C0" stroke="none" d="M 279 432 C 279 422.6111584 319.294368 415 369 415 C 418.705632 415 459 422.6111584 459 432 C 459 441.3888416 418.705632 449 369 449 C 319.294368 449 279 441.3888416 279 432 Z" opacity="0.2"/></g><g transform="translate(10,-46) scale(1,1)"><path fill="#ffffff" stroke="none" d="M 272 425 C 272 415.6111584 312.294368 408 362 408 C 411.705632 408 452 415.6111584 452 425 C 452 434.3888416 411.705632 442 362 442 C 312.294368 442 272 434.3888416 272 425 Z"/></g><g transform="translate(10,-46) scale(1,1)"><path fill="none" stroke="#000000" d="M 272 425 C 272 415.6111584 312.294368 408 362 408 C 411.705632 408 452 415.6111584 452 425 C 452 434.3888416 411.705632 442 362 442 C 312.294368 442 272 434.3888416 272 425 Z" stroke-miterlimit="10"/></g><g transform="translate(10,-46) scale(1,1)"><g><path fill="none" stroke="none"/><text fill="#000000" stroke="none" font-family="Arial" font-size="13px" font-style="normal" font-weight="bold" text-decoration="none" x="307.438720703125" y="432">Antwoord afkeuren</text></g></g><g transform="translate(10,-46) scale(1,1)"><path fill="#C0C0C0" stroke="none" d="M 207 472 C 207 462.6111584 255.8009568 455 316 455 C 376.1990432 455 425 462.6111584 425 472 C 425 481.3888416 376.1990432 489 316 489 C 255.8009568 489 207 481.3888416 207 472 Z" opacity="0.2"/></g><g transform="translate(10,-46) scale(1,1)"><path fill="#ffffff" stroke="none" d="M 200 465 C 200 455.6111584 248.8009568 448 309 448 C 369.1990432 448 418 455.6111584 418 465 C 418 474.3888416 369.1990432 482 309 482 C 248.8009568 482 200 474.3888416 200 465 Z"/></g><g transform="translate(10,-46) scale(1,1)"><path fill="none" stroke="#000000" d="M 200 465 C 200 455.6111584 248.8009568 448 309 448 C 369.1990432 448 418 455.6111584 418 465 C 418 474.3888416 369.1990432 482 309 482 C 248.8009568 482 200 474.3888416 200 465 Z" stroke-miterlimit="10"/></g><g transform="translate(10,-46) scale(1,1)"><g><path fill="none" stroke="none"/><text fill="#000000" stroke="none" font-family="Arial" font-size="13px" font-style="normal" font-weight="bold" text-decoration="none" x="241.4228515625" y="472">Volgende ronde starten</text></g></g><g transform="translate(10,-46) scale(1,1)"><path fill="#C0C0C0" stroke="none" d="M 311 336 C 311 326.6111584 345.4740704 319 388 319 C 430.5259296 319 465 326.6111584 465 336 C 465 345.3888416 430.5259296 353 388 353 C 345.4740704 353 311 345.3888416 311 336 Z" opacity="0.2"/></g><g transform="translate(10,-46) scale(1,1)"><path fill="#ffffff" stroke="none" d="M 304 329 C 304 319.6111584 338.4740704 312 381 312 C 423.5259296 312 458 319.6111584 458 329 C 458 338.3888416 423.5259296 346 381 346 C 338.4740704 346 304 338.3888416 304 329 Z"/></g><g transform="translate(10,-46) scale(1,1)"><path fill="none" stroke="#000000" d="M 304 329 C 304 319.6111584 338.4740704 312 381 312 C 423.5259296 312 458 319.6111584 458 329 C 458 338.3888416 423.5259296 346 381 346 C 338.4740704 346 304 338.3888416 304 329 Z" stroke-miterlimit="10"/></g><g transform="translate(10,-46) scale(1,1)"><g><path fill="none" stroke="none"/><text fill="#000000" stroke="none" font-family="Arial" font-size="13px" font-style="normal" font-weight="bold" text-decoration="none" x="334.37646484375" y="336">Spel beëindigen</text></g></g><g transform="translate(10,-46) scale(1,1)"><path fill="#C0C0C0" stroke="none" d="M 7 608 C 7 598.6111584 54.6816688 591 113.5 591 C 172.3183312 591 220 598.6111584 220 608 C 220 617.3888416 172.3183312 625 113.5 625 C 54.6816688 625 7 617.3888416 7 608 Z" opacity="0.2"/></g><g transform="translate(10,-46) scale(1,1)"><path fill="#ffffff" stroke="none" d="M 0 601 C 0 591.6111584 47.6816688 584 106.5 584 C 165.3183312 584 213 591.6111584 213 601 C 213 610.3888416 165.3183312 618 106.5 618 C 47.6816688 618 0 610.3888416 0 601 Z"/></g><g transform="translate(10,-46) scale(1,1)"><path fill="none" stroke="#000000" d="M 0 601 C 0 591.6111584 47.6816688 584 106.5 584 C 165.3183312 584 213 591.6111584 213 601 C 213 610.3888416 165.3183312 618 106.5 618 C 47.6816688 618 0 610.3888416 0 601 Z" stroke-miterlimit="10"/></g><g transform="translate(10,-46) scale(1,1)"><g><path fill="none" stroke="none"/><text fill="#000000" stroke="none" font-family="Arial" font-size="13px" font-style="normal" font-weight="bold" text-decoration="none" x="40.735107421875" y="608">Leaderboards sorteren</text></g></g><g transform="translate(10,-46) scale(1,1)"><path fill="#C0C0C0" stroke="none" d="M 151 112 C 151 102.6111584 198.2339536 95 256.5 95 C 314.7660464 95 362 102.6111584 362 112 C 362 121.3888416 314.7660464 129 256.5 129 C 198.2339536 129 151 121.3888416 151 112 Z" opacity="0.2"/></g><g transform="translate(10,-46) scale(1,1)"><path fill="#ffffff" stroke="none" d="M 144 105 C 144 95.6111584 191.2339536 88 249.5 88 C 307.7660464 88 355 95.6111584 355 105 C 355 114.3888416 307.7660464 122 249.5 122 C 191.2339536 122 144 114.3888416 144 105 Z"/></g><g transform="translate(10,-46) scale(1,1)"><path fill="none" stroke="#000000" d="M 144 105 C 144 95.6111584 191.2339536 88 249.5 88 C 307.7660464 88 355 95.6111584 355 105 C 355 114.3888416 307.7660464 122 249.5 122 C 191.2339536 122 144 114.3888416 144 105 Z" stroke-miterlimit="10"/></g><g transform="translate(10,-46) scale(1,1)"><g><path fill="none" stroke="none"/><text fill="#000000" stroke="none" font-family="Arial" font-size="13px" font-style="normal" font-weight="bold" text-decoration="none" x="183.392333984375" y="112">Maximale score kiezen</text></g></g><g transform="translate(10,-46) scale(1,1)"><path fill="#C0C0C0" stroke="none" d="M 247 168 C 247 158.6111584 285.27964959999997 151 332.5 151 C 379.72035040000003 151 418 158.6111584 418 168 C 418 177.3888416 379.72035040000003 185 332.5 185 C 285.27964959999997 185 247 177.3888416 247 168 Z" opacity="0.2"/></g><g transform="translate(10,-46) scale(1,1)"><path fill="#ffffff" stroke="none" d="M 240 161 C 240 151.6111584 278.27964959999997 144 325.5 144 C 372.72035040000003 144 411 151.6111584 411 161 C 411 170.3888416 372.72035040000003 178 325.5 178 C 278.27964959999997 178 240 170.3888416 240 161 Z"/></g><g transform="translate(10,-46) scale(1,1)"><path fill="none" stroke="#000000" d="M 240 161 C 240 151.6111584 278.27964959999997 144 325.5 144 C 372.72035040000003 144 411 151.6111584 411 161 C 411 170.3888416 372.72035040000003 178 325.5 178 C 278.27964959999997 178 240 170.3888416 240 161 Z" stroke-miterlimit="10"/></g><g transform="translate(10,-46) scale(1,1)"><g><path fill="none" stroke="none"/><text fill="#000000" stroke="none" font-family="Arial" font-size="13px" font-style="normal" font-weight="bold" text-decoration="none" x="272.7509765625" y="168">Onderwerp kiezen</text></g></g><g transform="translate(10,-46) scale(1,1)"><path fill="none" stroke="#000000" d="M 57 303 L 91 91" stroke-miterlimit="10"/></g><g transform="translate(10,-46) scale(1,1)"><path fill="none" stroke="#000000" d="M 87 335 L 303 286" stroke-miterlimit="10"/></g><g transform="translate(10,-46) scale(1,1)"><path fill="none" stroke="#000000" d="M 87 341 L 303 332" stroke-miterlimit="10"/></g><g transform="translate(10,-46) scale(1,1)"><path fill="none" stroke="#000000" d="M 84 303 L 234 123" stroke-miterlimit="10"/></g><g transform="translate(10,-46) scale(1,1)"><path fill="none" stroke="#000000" d="M 87 319 L 298 179" stroke-miterlimit="10"/></g><g transform="translate(10,-46) scale(1,1)"><path fill="none" stroke="#000000" d="M 87 353 L 294 407" stroke-miterlimit="10"/></g><g transform="translate(10,-46) scale(1,1)"><path fill="none" stroke="#000000" d="M 87 347 L 271 366" stroke-miterlimit="10"/></g><g transform="translate(10,-46) scale(1,1)"><path fill="none" stroke="#000000" d="M 87 360 L 271 447" stroke-miterlimit="10"/></g><g transform="translate(10,-46) scale(1,1)"><path fill="none" stroke="#000000" d="M 87 371 L 252 495" stroke-miterlimit="10"/></g><g transform="translate(10,-46) scale(1,1)"><path fill="none" stroke="#000000" d="M 79 384 L 190 543" stroke-miterlimit="10"/></g><g transform="translate(10,-46) scale(1,1)"><path fill="none" stroke="#000000" d="M 60 384 L 102 583" stroke-miterlimit="10"/></g><g transform="translate(10,-46) scale(1,1)"><path fill="#C0C0C0" stroke="none" d="M 151 520 C 151 510.6111584 210.0984064 503 283 503 C 355.9015936 503 415 510.6111584 415 520 C 415 529.3888416 355.9015936 537 283 537 C 210.0984064 537 151 529.3888416 151 520 Z" opacity="0.2"/></g><g transform="translate(10,-46) scale(1,1)"><path fill="#ffffff" stroke="none" d="M 144 513 C 144 503.6111584 203.0984064 496 276 496 C 348.9015936 496 408 503.6111584 408 513 C 408 522.3888416 348.9015936 530 276 530 C 203.0984064 530 144 522.3888416 144 513 Z"/></g><g transform="translate(10,-46) scale(1,1)"><path fill="none" stroke="#000000" d="M 144 513 C 144 503.6111584 203.0984064 496 276 496 C 348.9015936 496 408 503.6111584 408 513 C 408 522.3888416 348.9015936 530 276 530 C 203.0984064 530 144 522.3888416 144 513 Z" stroke-miterlimit="10"/></g><g transform="translate(10,-46) scale(1,1)"><g><path fill="none" stroke="none"/><text fill="#000000" stroke="none" font-family="Arial" font-size="13px" font-style="normal" font-weight="bold" text-decoration="none" x="192.896484375" y="520">Onderwerp verzoek indienen</text></g></g><g transform="translate(10,-46) scale(1,1)"><path fill="#C0C0C0" stroke="none" d="M 103 568 C 103 558.6111584 150.6816688 551 209.5 551 C 268.3183312 551 316 558.6111584 316 568 C 316 577.3888416 268.3183312 585 209.5 585 C 150.6816688 585 103 577.3888416 103 568 Z" opacity="0.2"/></g><g transform="translate(10,-46) scale(1,1)"><path fill="#ffffff" stroke="none" d="M 96 561 C 96 551.6111584 143.6816688 544 202.5 544 C 261.3183312 544 309 551.6111584 309 561 C 309 570.3888416 261.3183312 578 202.5 578 C 143.6816688 578 96 570.3888416 96 561 Z"/></g><g transform="translate(10,-46) scale(1,1)"><path fill="none" stroke="#000000" d="M 96 561 C 96 551.6111584 143.6816688 544 202.5 544 C 261.3183312 544 309 551.6111584 309 561 C 309 570.3888416 261.3183312 578 202.5 578 C 143.6816688 578 96 570.3888416 96 561 Z" stroke-miterlimit="10"/></g><g transform="translate(10,-46) scale(1,1)"><g><path fill="none" stroke="none"/><text fill="#000000" stroke="none" font-family="Arial" font-size="13px" font-style="normal" font-weight="bold" text-decoration="none" x="136.73193359375" y="568">Leaderboards bekijken</text></g></g></g></svg>